<?xml version="1.0" encoding="utf-8"?>
<!-- Generator: Adobe Illustrator 25.3.0, SVG Export Plug-In . SVG Version: 6.00 Build 0)  -->
<svg version="1.1" xmlns="http://www.w3.org/2000/svg" xmlns:xlink="http://www.w3.org/1999/xlink" x="0px" y="0px"
	 viewBox="0 0 512 512" style="enable-background:new 0 0 512 512;" xml:space="preserve">
<style type="text/css">
	.st0{fill:#141414;}
	.st1{fill:url(#SVGID_1_);}
	.st2{fill:url(#SVGID_2_);}
</style>
<g id="Layer_1">
	<g>
		<path class="st0" d="M0,496.9c0,8.3,6.7,15,15,15h482c8.3,0,15-6.7,15-15v-482c0-8.3-6.7-15-15-15H15c-8.3,0-15,6.7-15,15V496.9z"
			/>
	</g>
</g>
<g id="Layer_2">
	<g>
		<linearGradient id="SVGID_1_" gradientUnits="userSpaceOnUse" x1="74.4999" y1="255.9983" x2="234.4999" y2="255.9983">
			<stop  offset="0" style="stop-color:#11998E"/>
			<stop  offset="1" style="stop-color:#38EF7D"/>
		</linearGradient>
		<path class="st1" d="M130,353.9v-151H74.5v-44.8h160v44.8h-55.2v151H130z"/>
		<linearGradient id="SVGID_2_" gradientUnits="userSpaceOnUse" x1="241.7518" y1="255.8733" x2="437.5013" y2="255.8733">
			<stop  offset="0" style="stop-color:#11998E"/>
			<stop  offset="1" style="stop-color:#38EF7D"/>
		</linearGradient>
		<path class="st2" d="M291.5,255.4c0,15.8,4.9,29.3,14.8,40.5c9.8,11,22.5,16.5,38,16.5c9.7,0,18.6-2.4,26.8-7.2
			c8.3-4.8,13.3-11.1,15-18.8h-56.2v-39.5h107.8v19c0,25.7-8.7,47.3-26,65c-17.3,17.3-39.8,26-67.2,26c-29.5,0-53.9-9.6-73.2-28.8
			c-19.5-19.2-29.2-43.2-29.2-72.2c0-27.5,9.9-51.2,29.7-71c20-20,44.2-30,72.5-30c19.7,0,37.6,4.9,53.8,14.8
			c16.2,9.8,27.7,23.2,34.5,40.2l-41.8,20.5c-8.7-20.7-24.2-31-46.8-31c-14.8,0-27.2,5.2-37.2,15.8S291.5,239,291.5,255.4z"/>
	</g>
</g>
</svg>
